<?xml version="1.0" standalone="no"?><svg xmlns="http://www.w3.org/2000/svg" viewBox="0 0 1440 320"><path fill="#273036" fill-opacity="1" d="M0,64L30,96C60,128,120,192,180,218.7C240,245,300,235,360,202.7C420,171,480,117,540,122.7C600,128,660,192,720,218.7C780,245,840,235,900,208C960,181,1020,139,1080,133.3C1140,128,1200,160,1260,160C1320,160,1380,128,1410,112L1440,96L1440,320L1410,320C1380,320,1320,320,1260,320C1200,320,1140,320,1080,320C1020,320,960,320,900,320C840,320,780,320,720,320C660,320,600,320,540,320C480,320,420,320,360,320C300,320,240,320,180,320C120,320,60,320,30,320L0,320Z"></path></svg>